<svg width="158" height="137" viewBox="0 0 158 137" fill="none" xmlns="http://www.w3.org/2000/svg">
<path fill-rule="evenodd" clip-rule="evenodd" d="M41.7208 2.49366C39.2328 5.65666 38.1418 9.54266 36.4918 21.1127C35.3888 28.8477 35.0068 29.8657 33.1948 29.8847C23.4278 29.9897 11.6448 44.0857 11.6448 55.6647C11.6448 65.1017 23.4558 77.9507 30.7828 76.4847C33.1278 76.0157 33.6448 76.2557 33.6448 77.8107C33.6448 80.7837 38.4678 85.8627 41.2898 85.8627C45.4798 85.8627 47.2208 79.8867 49.0098 59.3627C52.7448 16.5317 52.2808 2.81566 47.0298 0.818661C43.7608 -0.424339 44.0998 -0.531339 41.7208 2.49366ZM62.2018 19.0847C60.7708 21.1277 60.7998 21.4617 62.5538 23.2167C65.1668 25.8287 69.6448 24.7727 69.6448 21.5437C69.6448 16.8157 64.8908 15.2457 62.2018 19.0847ZM59.7798 42.4177C50.7628 53.8817 53.0098 93.1297 62.0868 82.6957C67.6058 76.3507 70.6278 40.8627 65.6488 40.8627C65.1868 40.8627 64.1508 40.6107 63.3468 40.3017C62.4858 39.9717 61.0208 40.8397 59.7798 42.4177ZM33.2818 46.1127C32.9588 49.0007 32.6828 54.4147 32.6688 58.1437C32.6388 66.6147 30.8348 67.9777 26.5438 62.7747C21.4848 56.6397 22.7068 48.1047 29.3998 42.8407C33.2878 39.7827 33.9318 40.3247 33.2818 46.1127ZM85.6328 46.6837C80.2928 52.0527 79.1248 55.0677 77.4298 67.8647C74.9768 86.3797 83.2938 89.2217 87.0298 71.1457C91.5568 49.2427 93.4408 49.3487 97.1798 71.7147C101.98 100.426 108.462 98.8797 107.45 69.2657C106.594 44.2427 97.4628 34.7907 85.6328 46.6837ZM129.971 49.1127C119.547 58.6827 117.354 72.3927 124.974 80.3447C129.514 85.0837 135.532 86.5757 138.428 83.6797C142.509 79.5987 143.524 100.787 139.565 107.399C137.207 111.336 125.568 117.959 123.268 116.672C121.014 115.41 121.16 117.555 123.601 121.559C126.473 126.269 131.809 127.634 138.571 125.388C156.393 119.468 161.735 103.449 154.602 77.3177C152.808 70.7427 150.562 62.3657 149.612 58.7027C145.88 44.3157 138.906 40.9097 129.971 49.1127ZM137.481 76.5597C134.388 80.2867 130.788 73.0497 132.731 67.0117C135.021 59.8967 135.966 60.0977 137.294 67.9777C138.157 73.0957 138.213 75.6787 137.481 76.5597ZM2.09977 131.318C-0.937229 134.354 -0.646229 136.477 2.75477 136.094C5.43577 135.792 7.84677 133.144 7.42377 130.965C6.94077 128.479 4.79677 128.621 2.09977 131.318Z" fill="black"/>
</svg>
