<svg width="160" height="128" viewBox="0 0 160 128" fill="none" xmlns="http://www.w3.org/2000/svg">
<path fill-rule="evenodd" clip-rule="evenodd" d="M29.8331 2.346C27.0811 4.726 24.5221 15.811 24.4551 25.638C24.3931 34.792 23.5741 37.013 20.2631 37.013C7.41109 37.013 -3.37491 55.408 0.984091 69.893C4.36009 81.109 14.4611 84.093 22.6401 76.291C24.6521 74.372 25.4591 74.063 25.7361 75.104C30.9241 94.574 36.9171 96.309 44.8971 80.651C48.8751 72.848 48.8751 72.848 49.9811 77.186C52.0121 85.147 55.3871 88.391 59.8551 86.676C65.0751 84.673 64.6611 51.256 59.3571 46.456C54.7611 42.297 49.9281 47.449 48.8331 57.677C47.7881 67.431 39.2251 79.477 38.2861 72.513C37.0941 63.669 37.2111 29.892 38.4771 17.25C40.0061 1.988 36.7461 -3.633 29.8331 2.346ZM93.9201 36.909C88.9001 39.233 84.8811 43.471 81.9691 49.514C79.7071 54.208 79.7071 54.208 78.5641 49.67C76.7071 42.297 72.2951 42.05 70.3671 49.21C68.4231 56.431 72.1381 86.558 75.4671 90.57C77.5631 93.095 83.9741 91.895 85.5051 88.692C85.5521 88.593 85.9331 81.988 86.3521 74.013C87.2041 57.78 89.3701 51.321 95.3981 47.029C104.571 40.497 106.481 48.254 103.796 81.126C102.097 101.928 110.489 102.968 114.984 82.513C122.277 49.329 112.555 28.281 93.9201 36.909ZM138.92 41.731C120.945 46.098 121.704 88.013 139.758 88.013C142.794 88.013 143.352 90.606 142.124 99.013C140.217 112.076 130.365 121.256 120.373 119.28C113.963 118.013 114.178 118.675 121.715 123.416C134.045 131.172 146.039 127.87 153.832 114.574C160.694 102.864 160.805 90.729 154.302 63.154C152.978 57.543 152.547 53.351 152.989 50.404C153.59 46.393 153.464 46.013 151.534 46.013C150.371 46.013 149.42 45.54 149.42 44.962C149.42 44.384 147.859 43.259 145.952 42.462C142.341 40.953 142.187 40.937 138.92 41.731ZM22.9371 51.748C22.0241 57.837 17.1961 68.501 14.9641 69.358C8.91809 71.678 10.6071 56.604 17.1601 49.763C21.5181 45.213 23.7991 45.997 22.9371 51.748ZM141.92 66.925C141.92 76.049 141.64 78.607 140.725 77.849C139.013 76.432 137.201 66.758 138.013 63.376C138.644 60.747 141.169 55.014 141.696 55.012C141.819 55.012 141.92 60.373 141.92 66.925Z" fill="black"/>
</svg>
