<svg width="164" height="108" viewBox="0 0 164 108" fill="none" xmlns="http://www.w3.org/2000/svg">
<path fill-rule="evenodd" clip-rule="evenodd" d="M133.727 1.99991C132.329 3.09991 129.828 3.99991 128.169 3.99991C120.443 3.99991 110.984 20.5099 111.006 33.9599C111.035 52.6569 130.507 60.6989 139.447 45.7059C142.262 40.9859 141.917 40.4619 145.552 54.9999C151.113 77.2479 149.9 90.0079 142.224 89.9919C135.787 89.9789 125.916 87.9979 121.782 85.8889C115.829 82.8519 116.22 84.1199 123.207 90.5079C138.186 104.203 153.29 104.923 161.127 92.3169C167.337 82.3279 160.84 48.1629 145.951 12.5119C141.061 0.802907 138.284 -1.58509 133.727 1.99991ZM134.831 18.6159C136.465 24.3689 136.287 30.5319 134.379 34.2999C127.409 48.0639 121.765 39.2459 127.093 22.9149C130.573 12.2459 132.689 11.0709 134.831 18.6159ZM77.724 20.2499C76.812 20.9379 75.381 23.1589 74.546 25.1859C73.026 28.8729 73.026 28.8729 70.09 25.9359C65.944 21.7899 62 23.0419 62 28.5049C62 35.8099 71.17 74.4259 73.522 77.0239C79.964 84.1429 82.882 77.6759 80.663 61.1939C76.907 33.2889 79.07 27.8879 86.914 45.5819C99.144 73.1669 103.095 78.5049 107.8 73.7999C113.186 68.4139 95.627 25.4779 86.003 20.5009C82.466 18.6719 79.92 18.5949 77.724 20.2499ZM9.46198 22.4169C8.33498 24.1379 8.07098 25.9389 8.54698 28.6669C9.46898 33.9529 13.857 49.7229 15.501 53.6569C16.854 56.8949 16.854 56.8949 12.385 59.5149C-5.46002 69.9719 -2.75102 103 15.952 103C20.618 103 29.318 98.6899 31.561 95.2669C33.289 92.6289 33.289 92.6289 36.398 98.9449C40.605 107.489 43.019 109.072 46.513 105.578C50.899 101.192 48.323 90.6129 36.53 64.5869C32.521 55.7389 27.049 43.1649 24.371 36.6439C17.736 20.4949 13.42 16.3759 9.46198 22.4169ZM41.04 24.4519C39.057 26.8419 40.208 29.4649 43.4 29.8299C47.577 30.3079 49.254 27.3969 46.429 24.5709C44.468 22.6109 42.602 22.5689 41.04 24.4519ZM47.905 44.1779C43.797 51.8529 53.093 86.9809 59.668 88.6309C66.019 90.2259 66.492 83.0599 61.426 61.9649C56.954 43.3399 51.907 36.7009 47.905 44.1779ZM23.838 73.9479C27.993 83.0779 27.253 85.2729 19.054 88.1309C11.544 90.7489 10.264 76.9739 17.299 69.2499C20.173 66.0949 20.307 66.1909 23.838 73.9479Z" fill="black"/>
</svg>
